<mxfile host="app.diagrams.net" modified="2024-01-27T13:24:24.152Z" agent="Mozilla/5.0 (Macintosh; Intel Mac OS X 10_15_7) AppleWebKit/537.36 (KHTML, like Gecko) Chrome/121.0.0.0 Safari/537.36" etag="3XR8YxwBd686tqnM4pQ2" version="23.0.2" type="google">
  <diagram name="PÃ¡gina-1" id="orKtkqgNnEhuvpbU4lRC">
    <mxGraphModel dx="896" dy="561" grid="1" gridSize="10" guides="1" tooltips="1" connect="1" arrows="1" fold="1" page="1" pageScale="1" pageWidth="850" pageHeight="1100" math="0" shadow="0">
      <root>
        <mxCell id="0" />
        <mxCell id="1" parent="0" />
        <mxCell id="g9TUhTmFaGRDurfYE0z2-6" style="edgeStyle=orthogonalEdgeStyle;rounded=0;orthogonalLoop=1;jettySize=auto;html=1;exitX=0.5;exitY=0.5;exitDx=0;exitDy=0;exitPerimeter=0;entryX=0.5;entryY=1;entryDx=0;entryDy=0;" parent="1" source="6Vy0_xkDUqe9r4v5dvLa-1" target="g9TUhTmFaGRDurfYE0z2-1" edge="1">
          <mxGeometry relative="1" as="geometry" />
        </mxCell>
        <mxCell id="g9TUhTmFaGRDurfYE0z2-7" value="Define Symbol -&amp;gt; BTCUSDT" style="edgeLabel;html=1;align=center;verticalAlign=middle;resizable=0;points=[];" parent="g9TUhTmFaGRDurfYE0z2-6" vertex="1" connectable="0">
          <mxGeometry x="0.1063" y="-3" relative="1" as="geometry">
            <mxPoint as="offset" />
          </mxGeometry>
        </mxCell>
        <mxCell id="6Vy0_xkDUqe9r4v5dvLa-1" value="Actor" style="shape=umlActor;verticalLabelPosition=bottom;verticalAlign=top;html=1;outlineConnect=0;" parent="1" vertex="1">
          <mxGeometry x="200" y="250" width="30" height="60" as="geometry" />
        </mxCell>
        <mxCell id="g9TUhTmFaGRDurfYE0z2-1" value="SQL Server" style="rounded=1;whiteSpace=wrap;html=1;" parent="1" vertex="1">
          <mxGeometry x="600" y="170" width="120" height="60" as="geometry" />
        </mxCell>
        <mxCell id="g9TUhTmFaGRDurfYE0z2-2" value="Binance" style="rounded=1;whiteSpace=wrap;html=1;" parent="1" vertex="1">
          <mxGeometry x="600" y="40" width="120" height="60" as="geometry" />
        </mxCell>
        <mxCell id="g9TUhTmFaGRDurfYE0z2-4" value="Redis" style="rounded=1;whiteSpace=wrap;html=1;" parent="1" vertex="1">
          <mxGeometry x="270" y="60" width="120" height="60" as="geometry" />
        </mxCell>
        <mxCell id="g9TUhTmFaGRDurfYE0z2-5" value="Console" style="shape=process;whiteSpace=wrap;html=1;backgroundOutline=1;" parent="1" vertex="1">
          <mxGeometry x="320" y="180" width="120" height="60" as="geometry" />
        </mxCell>
        <mxCell id="g9TUhTmFaGRDurfYE0z2-9" style="edgeStyle=orthogonalEdgeStyle;rounded=0;orthogonalLoop=1;jettySize=auto;html=1;entryX=0;entryY=0.5;entryDx=0;entryDy=0;" parent="1" source="g9TUhTmFaGRDurfYE0z2-8" target="g9TUhTmFaGRDurfYE0z2-1" edge="1">
          <mxGeometry relative="1" as="geometry" />
        </mxCell>
        <mxCell id="g9TUhTmFaGRDurfYE0z2-10" value="1" style="edgeLabel;html=1;align=center;verticalAlign=middle;resizable=0;points=[];" parent="g9TUhTmFaGRDurfYE0z2-9" vertex="1" connectable="0">
          <mxGeometry x="0.0083" y="2" relative="1" as="geometry">
            <mxPoint as="offset" />
          </mxGeometry>
        </mxCell>
        <mxCell id="g9TUhTmFaGRDurfYE0z2-11" value="2" style="edgeStyle=orthogonalEdgeStyle;rounded=0;orthogonalLoop=1;jettySize=auto;html=1;entryX=0;entryY=0.5;entryDx=0;entryDy=0;" parent="1" source="g9TUhTmFaGRDurfYE0z2-8" target="g9TUhTmFaGRDurfYE0z2-2" edge="1">
          <mxGeometry relative="1" as="geometry" />
        </mxCell>
        <mxCell id="g9TUhTmFaGRDurfYE0z2-12" value="3" style="edgeStyle=orthogonalEdgeStyle;rounded=0;orthogonalLoop=1;jettySize=auto;html=1;entryX=0.5;entryY=1;entryDx=0;entryDy=0;" parent="1" source="g9TUhTmFaGRDurfYE0z2-8" target="g9TUhTmFaGRDurfYE0z2-4" edge="1">
          <mxGeometry relative="1" as="geometry" />
        </mxCell>
        <mxCell id="g9TUhTmFaGRDurfYE0z2-13" value="4" style="edgeStyle=orthogonalEdgeStyle;rounded=0;orthogonalLoop=1;jettySize=auto;html=1;entryX=1;entryY=0.5;entryDx=0;entryDy=0;" parent="1" source="g9TUhTmFaGRDurfYE0z2-8" target="g9TUhTmFaGRDurfYE0z2-5" edge="1">
          <mxGeometry relative="1" as="geometry" />
        </mxCell>
        <mxCell id="g9TUhTmFaGRDurfYE0z2-8" value="TickerPrice&lt;br&gt;Worker" style="shape=parallelogram;perimeter=parallelogramPerimeter;whiteSpace=wrap;html=1;fixedSize=1;" parent="1" vertex="1">
          <mxGeometry x="425" y="90" width="120" height="60" as="geometry" />
        </mxCell>
        <mxCell id="g9TUhTmFaGRDurfYE0z2-15" style="edgeStyle=orthogonalEdgeStyle;rounded=0;orthogonalLoop=1;jettySize=auto;html=1;entryX=0;entryY=0.5;entryDx=0;entryDy=0;" parent="1" source="g9TUhTmFaGRDurfYE0z2-14" target="g9TUhTmFaGRDurfYE0z2-4" edge="1">
          <mxGeometry relative="1" as="geometry" />
        </mxCell>
        <mxCell id="g9TUhTmFaGRDurfYE0z2-17" value="1" style="edgeLabel;html=1;align=center;verticalAlign=middle;resizable=0;points=[];" parent="g9TUhTmFaGRDurfYE0z2-15" vertex="1" connectable="0">
          <mxGeometry x="-0.0371" y="-2" relative="1" as="geometry">
            <mxPoint as="offset" />
          </mxGeometry>
        </mxCell>
        <mxCell id="g9TUhTmFaGRDurfYE0z2-14" value="Threashold" style="shape=process;whiteSpace=wrap;html=1;backgroundOutline=1;" parent="1" vertex="1">
          <mxGeometry x="70" y="120" width="120" height="60" as="geometry" />
        </mxCell>
        <mxCell id="g9TUhTmFaGRDurfYE0z2-16" value="2" style="edgeStyle=orthogonalEdgeStyle;rounded=0;orthogonalLoop=1;jettySize=auto;html=1;entryX=0.25;entryY=1;entryDx=0;entryDy=0;" parent="1" source="g9TUhTmFaGRDurfYE0z2-14" target="g9TUhTmFaGRDurfYE0z2-14" edge="1">
          <mxGeometry relative="1" as="geometry">
            <Array as="points">
              <mxPoint x="130" y="100" />
              <mxPoint x="40" y="100" />
              <mxPoint x="40" y="200" />
              <mxPoint x="100" y="200" />
            </Array>
          </mxGeometry>
        </mxCell>
        <mxCell id="g9TUhTmFaGRDurfYE0z2-20" value="&lt;h1&gt;Threashold&lt;br&gt;&lt;/h1&gt;&lt;p&gt;- Notificar -&amp;gt; 1% Up, 1% Dw&lt;br&gt;&lt;/p&gt;" style="text;html=1;strokeColor=none;fillColor=none;spacing=5;spacingTop=-20;whiteSpace=wrap;overflow=hidden;rounded=0;" parent="1" vertex="1">
          <mxGeometry x="465" y="340" width="255" height="120" as="geometry" />
        </mxCell>
        <mxCell id="g9TUhTmFaGRDurfYE0z2-26" style="edgeStyle=orthogonalEdgeStyle;rounded=0;orthogonalLoop=1;jettySize=auto;html=1;" parent="1" source="g9TUhTmFaGRDurfYE0z2-21" target="g9TUhTmFaGRDurfYE0z2-24" edge="1">
          <mxGeometry relative="1" as="geometry" />
        </mxCell>
        <mxCell id="g9TUhTmFaGRDurfYE0z2-21" value="Estatistica" style="shape=cylinder3;whiteSpace=wrap;html=1;boundedLbl=1;backgroundOutline=1;size=15;" parent="1" vertex="1">
          <mxGeometry x="90" y="320" width="60" height="80" as="geometry" />
        </mxCell>
        <mxCell id="g9TUhTmFaGRDurfYE0z2-23" style="edgeStyle=orthogonalEdgeStyle;rounded=0;orthogonalLoop=1;jettySize=auto;html=1;entryX=0.5;entryY=0;entryDx=0;entryDy=0;entryPerimeter=0;" parent="1" source="g9TUhTmFaGRDurfYE0z2-14" target="g9TUhTmFaGRDurfYE0z2-21" edge="1">
          <mxGeometry relative="1" as="geometry" />
        </mxCell>
        <mxCell id="g9TUhTmFaGRDurfYE0z2-24" value="Buy or Sell" style="shape=process;whiteSpace=wrap;html=1;backgroundOutline=1;" parent="1" vertex="1">
          <mxGeometry x="220" y="390" width="120" height="60" as="geometry" />
        </mxCell>
        <mxCell id="g9TUhTmFaGRDurfYE0z2-25" style="edgeStyle=orthogonalEdgeStyle;rounded=0;orthogonalLoop=1;jettySize=auto;html=1;entryX=0.5;entryY=0.5;entryDx=0;entryDy=0;entryPerimeter=0;" parent="1" source="g9TUhTmFaGRDurfYE0z2-24" target="6Vy0_xkDUqe9r4v5dvLa-1" edge="1">
          <mxGeometry relative="1" as="geometry" />
        </mxCell>
      </root>
    </mxGraphModel>
  </diagram>
</mxfile>
